<svg width="10" height="20" viewBox="0 0 10 20" fill="none" xmlns="http://www.w3.org/2000/svg">
<path d="M6 6C6 5.44772 5.55228 5 5 5C4.44772 5 4 5.44772 4 6H6ZM4 14C4 14.5523 4.44772 15 5 15C5.55229 15 6 14.5523 6 14H4ZM10 13C10 12.4477 9.55229 12 9 12C8.44772 12 8 12.4477 8 13H10ZM2 13C2 12.4477 1.55228 12 1 12C0.447715 12 0 12.4477 0 13H2ZM8 7C8 7.55228 8.44772 8 9 8C9.55229 8 10 7.55228 10 7H8ZM0 7C0 7.55228 0.447715 8 1 8C1.55228 8 2 7.55228 2 7H0ZM4 6L4 14H6L6 6H4ZM8 13V15H10V13H8ZM8 15C8 16.6569 6.65685 18 5 18V20C7.76142 20 10 17.7614 10 15H8ZM5 18C3.34315 18 2 16.6569 2 15H0C0 17.7614 2.23858 20 5 20V18ZM2 15V13H0V15H2ZM10 7V5H8V7H10ZM10 5C10 2.23858 7.76142 0 5 0V2C6.65685 2 8 3.34315 8 5H10ZM5 0C2.23858 0 0 2.23858 0 5H2C2 3.34315 3.34315 2 5 2V0ZM0 5V7H2V5H0Z" fill="#888888"/>
</svg>
