<svg width="19" height="19" viewBox="0 0 19 19" fill="none" xmlns="http://www.w3.org/2000/svg">
<path d="M14.2222 18.0312C14.2222 15.4808 12.108 13.4132 9.5 13.4132C6.89199 13.4132 4.77778 15.4808 4.77778 18.0312M9.5 10.6424C7.93519 10.6424 6.66667 9.40182 6.66667 7.87153C6.66667 6.34124 7.93519 5.10069 9.5 5.10069C11.0648 5.10069 12.3333 6.34124 12.3333 7.87153C12.3333 9.40182 11.0648 10.6424 9.5 10.6424ZM18 4.36176V15.0756C18 16.1102 18.0002 16.6276 17.7943 17.0227C17.6132 17.3703 17.3239 17.6528 16.9685 17.8299C16.5644 18.0312 16.0358 18.0312 14.978 18.0312H4.02241C2.96453 18.0312 2.4352 18.0312 2.03114 17.8299C1.67572 17.6528 1.38697 17.3703 1.20588 17.0227C1 16.6276 1 16.1102 1 15.0756V4.36176C1 3.32722 1 2.81001 1.20588 2.41487C1.38697 2.06729 1.67572 1.78468 2.03114 1.60759C2.4352 1.40625 2.96453 1.40625 4.02241 1.40625H14.978C16.0358 1.40625 16.5644 1.40625 16.9685 1.60759C17.3239 1.78468 17.6132 2.06729 17.7943 2.41487C18.0002 2.81001 18 3.32722 18 4.36176Z" stroke="#1E78FF" stroke-width="1.36607" stroke-linecap="round" stroke-linejoin="round"/>
</svg>
