<svg width="21" height="15" viewBox="0 0 21 15" fill="none" xmlns="http://www.w3.org/2000/svg">
<path d="M1.06549 2.63754L1.5459 2.88776L1.06549 2.63754ZM1.99594 1.72707L2.23757 2.21185L1.99594 1.72707ZM1.99594 13.7729L2.23757 13.2881H2.23757L1.99594 13.7729ZM1.06549 12.8625L0.585081 13.1128H0.585081L1.06549 12.8625ZM19.7682 12.8625L19.2877 12.6123L19.7682 12.8625ZM18.837 13.7729L18.5954 13.2881L18.837 13.7729ZM19.7682 2.63754L19.2877 2.88776L19.7682 2.63754ZM18.837 1.72707L19.0787 1.24229L18.837 1.72707ZM9.87504 14C9.87504 14.2992 10.1176 14.5417 10.4167 14.5417C10.7159 14.5417 10.9584 14.2992 10.9584 14H9.87504ZM3.48615 14C3.48615 14.2992 3.72866 14.5417 4.02782 14.5417C4.32697 14.5417 4.56949 14.2992 4.56949 14H3.48615ZM16.8056 10.375C17.1048 10.375 17.3473 10.1325 17.3473 9.83333C17.3473 9.53418 17.1048 9.29167 16.8056 9.29167L16.8056 10.375ZM12.5463 9.29167C12.2472 9.29167 12.0047 9.53418 12.0047 9.83333C12.0047 10.1325 12.2472 10.375 12.5463 10.375V9.29167ZM16.8056 7.25C17.1048 7.25 17.3473 7.00749 17.3473 6.70833C17.3473 6.40918 17.1048 6.16667 16.8056 6.16667V7.25ZM13.6112 6.16667C13.312 6.16667 13.0695 6.40918 13.0695 6.70833C13.0695 7.00749 13.312 7.25 13.6112 7.25L13.6112 6.16667ZM7.22226 8.25C6.33397 8.25 5.6343 7.54861 5.6343 6.70833H4.55097C4.55097 8.16924 5.75823 9.33333 7.22226 9.33333V8.25ZM5.6343 6.70833C5.6343 5.86806 6.33397 5.16667 7.22226 5.16667V4.08333C5.75823 4.08333 4.55097 5.24742 4.55097 6.70833H5.6343ZM7.22226 5.16667C8.11056 5.16667 8.81023 5.86806 8.81023 6.70833H9.89356C9.89356 5.24742 8.6863 4.08333 7.22226 4.08333V5.16667ZM8.81023 6.70833C8.81023 7.54861 8.11056 8.25 7.22226 8.25V9.33333C8.6863 9.33333 9.89356 8.16924 9.89356 6.70833H8.81023ZM19.4584 4.83328V10.6666H20.5417V4.83328H19.4584ZM16.5928 13.4583H4.24099V14.5417H16.5928V13.4583ZM1.37504 10.6666V4.83328H0.291707V10.6666H1.37504ZM4.24099 2.04167H16.5928V0.958333H4.24099V2.04167ZM1.37504 4.83328C1.37504 4.24076 1.37548 3.82968 1.40218 3.51007C1.42831 3.19715 1.47678 3.02047 1.5459 2.88776L0.585081 2.38732C0.422084 2.70027 0.354494 3.03806 0.322601 3.41991C0.291267 3.79506 0.291707 4.25903 0.291707 4.83328H1.37504ZM4.24099 0.958333C3.65338 0.958333 3.1807 0.95793 2.79889 0.988438C2.41113 1.01942 2.07013 1.08486 1.7543 1.24229L2.23757 2.21185C2.37729 2.14221 2.56247 2.09411 2.88517 2.06833C3.21382 2.04207 3.6359 2.04167 4.24099 2.04167V0.958333ZM1.5459 2.88776C1.69658 2.59846 1.93793 2.36121 2.23757 2.21185L1.7543 1.24229C1.25251 1.4924 0.842749 1.89261 0.585081 2.38732L1.5459 2.88776ZM4.24099 13.4583C3.6359 13.4583 3.21383 13.4579 2.88519 13.4317C2.56249 13.4059 2.3773 13.3578 2.23757 13.2881L1.7543 14.2577C2.07012 14.4151 2.41111 14.4806 2.79888 14.5115C3.18069 14.5421 3.65337 14.5417 4.24099 14.5417V13.4583ZM0.291707 10.6666C0.291707 11.2409 0.291267 11.7049 0.322601 12.0801C0.354492 12.4619 0.422077 12.7998 0.585081 13.1128L1.5459 12.6123C1.47679 12.4796 1.42831 12.3029 1.40218 11.9899C1.37548 11.6703 1.37504 11.2591 1.37504 10.6666H0.291707ZM2.23757 13.2881C1.93787 13.1387 1.69655 12.9016 1.5459 12.6123L0.585081 13.1128C0.842779 13.6075 1.25257 14.0076 1.7543 14.2577L2.23757 13.2881ZM19.4584 10.6666C19.4584 11.2592 19.458 11.6703 19.4313 11.99C19.4053 12.303 19.3568 12.4797 19.2877 12.6123L20.2486 13.1128C20.4116 12.7997 20.4791 12.4618 20.5109 12.08C20.5422 11.7048 20.5417 11.2408 20.5417 10.6666H19.4584ZM16.5928 14.5417C17.1805 14.5417 17.6529 14.5421 18.0346 14.5115C18.4222 14.4805 18.7629 14.4151 19.0787 14.2577L18.5954 13.2881C18.4556 13.3578 18.2706 13.4059 17.9482 13.4317C17.6198 13.4579 17.1979 13.4583 16.5928 13.4583V14.5417ZM19.2877 12.6123C19.1373 12.9012 18.8955 13.1385 18.5954 13.2881L19.0787 14.2577C19.58 14.0078 19.9907 13.6079 20.2486 13.1128L19.2877 12.6123ZM20.5417 4.83328C20.5417 4.25909 20.5422 3.79511 20.5109 3.41999C20.4791 3.03818 20.4116 2.70033 20.2486 2.38732L19.2877 2.88776C19.3568 3.0204 19.4053 3.19704 19.4313 3.50999C19.458 3.82963 19.4584 4.2407 19.4584 4.83328H20.5417ZM16.5928 2.04167C17.1979 2.04167 17.6198 2.04207 17.9482 2.06833C18.2706 2.0941 18.4556 2.14218 18.5954 2.21185L19.0787 1.24229C18.7629 1.08489 18.4222 1.01943 18.0345 0.98844C17.6529 0.95793 17.1804 0.958333 16.5928 0.958333V2.04167ZM20.2486 2.38732C19.9907 1.89226 19.5801 1.49222 19.0787 1.24229L18.5954 2.21185C18.8954 2.36139 19.1372 2.59882 19.2877 2.88776L20.2486 2.38732ZM10.9584 14C10.9584 13.1816 10.4502 12.5122 9.77697 12.0732C9.0988 11.6309 8.19405 11.375 7.22226 11.375V12.4583C8.01472 12.4583 8.70719 12.6688 9.18518 12.9806C9.66812 13.2955 9.87504 13.6678 9.87504 14H10.9584ZM7.22226 11.375C6.25048 11.375 5.34573 11.6309 4.66755 12.0732C3.99433 12.5122 3.48615 13.1816 3.48615 14H4.56949C4.56949 13.6678 4.77641 13.2955 5.25935 12.9806C5.73734 12.6688 6.4298 12.4583 7.22226 12.4583V11.375ZM16.8056 9.29167L12.5463 9.29167V10.375L16.8056 10.375L16.8056 9.29167ZM16.8056 6.16667L13.6112 6.16667L13.6112 7.25L16.8056 7.25V6.16667Z" fill="white"/>
</svg>
