<svg width="20" height="20" viewBox="0 0 20 20" fill="none" xmlns="http://www.w3.org/2000/svg">
<path d="M10.0498 13.45H11.0498C11.0498 12.8977 10.6021 12.45 10.0498 12.45V13.45ZM10.0498 13.55L10.0496 14.55C10.3148 14.55 10.5692 14.4447 10.7568 14.2571C10.9444 14.0696 11.0498 13.8152 11.0498 13.55H10.0498ZM9.9502 13.5499H8.9502C8.9502 14.1021 9.39776 14.5498 9.94995 14.5499L9.9502 13.5499ZM9.9502 13.45V12.45C9.39791 12.45 8.9502 12.8977 8.9502 13.45H9.9502ZM11 6.44995C11 5.89767 10.5523 5.44995 10 5.44995C9.44771 5.44995 9 5.89767 9 6.44995H11ZM9 10.45C9 11.0022 9.44771 11.45 10 11.45C10.5523 11.45 11 11.0022 11 10.45H9ZM10 18C5.58172 18 2 14.4183 2 10H0C0 15.5228 4.47715 20 10 20V18ZM2 10C2 5.58172 5.58172 2 10 2V0C4.47715 0 0 4.47715 0 10H2ZM10 2C14.4183 2 18 5.58172 18 10H20C20 4.47715 15.5228 0 10 0V2ZM18 10C18 14.4183 14.4183 18 10 18V20C15.5228 20 20 15.5228 20 10H18ZM9.0498 13.45V13.55H11.0498V13.45H9.0498ZM10.0501 12.55L9.95044 12.5499L9.94995 14.5499L10.0496 14.55L10.0501 12.55ZM10.9502 13.5499V13.45H8.9502V13.5499H10.9502ZM9.9502 14.45H10.0498V12.45H9.9502V14.45ZM9 6.44995V10.45H11V6.44995H9Z" fill="#E44242"/>
</svg>
