<svg width="16" height="4" viewBox="0 0 16 4" fill="none" xmlns="http://www.w3.org/2000/svg">
<path d="M14 2H12C12 3.10457 12.8954 4 14 4V2ZM14 2V4C15.1046 4 16 3.10457 16 2H14ZM14 2H16C16 0.895431 15.1046 0 14 0V2ZM14 0C12.8954 0 12 0.895431 12 2H14V0ZM8 2H6C6 3.10457 6.89543 4 8 4V2ZM8 2V4C9.10457 4 10 3.10457 10 2H8ZM8 2H10C10 0.895431 9.10457 0 8 0V2ZM8 0C6.89543 0 6 0.895431 6 2H8V0ZM2 2H0C0 3.10457 0.895431 4 2 4V2ZM2 2V4C3.10457 4 4 3.10457 4 2H2ZM2 2H4C4 0.895431 3.10457 0 2 0V2ZM2 0C0.895431 0 0 0.895431 0 2H2V0Z" fill="white"/>
</svg>
