<svg width="20" height="21" viewBox="0 0 20 21" fill="none" xmlns="http://www.w3.org/2000/svg">
<path d="M15.222 7.05581V7.13879H15.1774C15.8165 7.13879 16.3975 7.36757 16.8183 7.73544C17.2392 8.10387 17.5 8.61227 17.5 9.17159V14.8005C17.5 15.3599 17.2386 15.8688 16.8183 16.2367C16.3973 16.6051 15.8164 16.8333 15.1774 16.8333H5.6559C5.01681 16.8333 4.43581 16.6045 4.01502 16.2367C3.59406 15.8682 3.33331 15.3599 3.33331 14.8005V9.17159C3.33331 8.61224 3.59471 8.10373 4.01502 7.73544C4.43598 7.36758 5.01685 7.13879 5.6559 7.13879H5.61187V7.05581M15.222 7.05581C15.8633 7.06619 16.4467 7.2999 16.8731 7.6727L16.8732 7.67273C17.3098 8.05489 17.5833 8.58523 17.5833 9.17159V14.8005C17.5833 15.3869 17.3091 15.9178 16.8732 16.2994C16.4367 16.6814 15.8362 16.9167 15.1774 16.9167H5.6559C4.99706 16.9167 4.39646 16.6808 3.96017 16.2994L3.96014 16.2994C3.5235 15.9172 3.24998 15.3869 3.24998 14.8005V9.17159C3.24998 8.58516 3.52418 8.05473 3.9601 7.67276L3.96019 7.67269C4.38689 7.29981 4.97036 7.06606 5.61187 7.05581M15.222 7.05581V5.13259C15.222 3.96883 14.6781 2.91356 13.8068 2.15096L13.7581 2.20666L13.8068 2.15096C12.9357 1.3886 11.7353 0.916667 10.4169 0.916667C9.09845 0.916667 7.89818 1.38849 7.027 2.15096L7.027 2.15097C6.15584 2.9135 5.61187 3.96889 5.61187 5.13259V7.05581M15.222 7.05581L5.6952 7.05545H5.65644H5.6559C5.64119 7.05545 5.62651 7.05557 5.61187 7.05581M14.2074 5.13259V7.05545H13.0731V5.13259C13.0731 4.48609 12.7707 3.90089 12.2893 3.47955C11.8075 3.05787 11.1443 2.79782 10.4169 2.79782C9.68941 2.79782 9.02622 3.05785 8.5444 3.47955C8.06301 3.90089 7.7606 4.48609 7.7606 5.13259V7.05545H6.62606V5.13259C6.62606 4.22816 7.04971 3.40221 7.7363 2.80128C8.42312 2.20029 9.37146 1.82586 10.4167 1.82586C11.4613 1.82586 12.4105 2.20027 13.0971 2.80128L13.0972 2.8013C13.7843 3.40232 14.2074 4.22756 14.2074 5.13259ZM12.0589 7.05545H8.77637V5.13259C8.77637 4.74473 8.95734 4.38957 9.25462 4.12937L9.19974 4.06667L9.25462 4.12937C9.55208 3.86902 9.96333 3.70595 10.4176 3.70595C10.8719 3.70595 11.2831 3.869 11.5805 4.12932C11.8773 4.38958 12.0589 4.7448 12.0589 5.13259V7.05545ZM4.67001 15.6503L4.66999 15.6503C4.41803 15.4298 4.26477 15.1289 4.26477 14.8012V9.17228C4.26477 8.84464 4.41814 8.54366 4.67 8.32322C4.92211 8.10257 5.27133 7.96427 5.65634 7.96427H15.1778C15.5628 7.96427 15.9122 8.10267 16.1642 8.32322L16.1642 8.32323C16.4161 8.54367 16.5694 8.84463 16.5694 9.17228V14.8012C16.5694 15.1289 16.416 15.4298 16.1642 15.6503C15.9121 15.8709 15.5628 16.0092 15.1778 16.0092H5.65634C5.27133 16.0092 4.92199 15.8708 4.67001 15.6503Z" fill="white" stroke="white" stroke-width="0.166667"/>
</svg>
