<svg width="452" height="503" viewBox="0 0 452 503" fill="none" xmlns="http://www.w3.org/2000/svg">
<path d="M120.722 41.4361L120.722 41.4361C93.6643 65.1194 76.7692 97.8987 76.7692 134.042V193.775C56.8446 194.093 38.7227 201.353 25.4699 212.934L25.4673 212.937C11.9281 224.8 3.41176 241.275 3.41176 259.488V434.317C3.41176 452.528 11.9069 469 25.4684 480.87L25.4695 480.871C39.0202 492.717 57.674 500.041 78.1368 500.041H373.863C394.324 500.041 412.974 492.735 426.532 480.87C440.072 469.018 448.588 452.53 448.588 434.317V259.488C448.588 241.277 440.093 224.805 426.532 212.936L426.53 212.935C413.286 201.356 395.166 194.097 375.248 193.775V134.042C375.248 97.897 358.357 65.1212 331.295 41.4361L329.59 43.3837L331.295 41.436C304.239 17.758 266.956 3.10024 226.008 3.10024C185.058 3.10024 147.779 17.7544 120.722 41.4361ZM309.253 61.634L309.254 61.6346C330.597 80.3016 343.736 105.933 343.736 134.042V193.764H308.507V134.042C308.507 113.962 299.114 95.7866 284.163 82.7005C269.198 69.6033 248.6 61.5267 226.007 61.5267C203.413 61.5267 182.815 69.6029 167.85 82.7005C152.899 95.7866 143.506 113.962 143.506 134.042V193.764H108.269V134.042C108.269 105.951 121.427 80.2981 142.752 61.634C164.084 42.9681 193.538 31.3387 226.002 31.3387C258.447 31.3387 287.926 42.9675 309.253 61.634ZM277.005 193.764H175.055V134.042C175.055 121.995 180.676 110.964 189.909 102.883L188.204 100.936L189.909 102.883C199.147 94.7968 211.921 89.732 226.03 89.732C240.138 89.732 252.911 94.7964 262.149 102.881C271.366 110.965 277.005 121.997 277.005 134.042V193.764ZM47.5161 460.709L47.5157 460.709C39.6901 453.862 34.93 444.515 34.93 434.338V259.51C34.93 249.334 39.6935 239.986 47.5161 233.139C55.3463 226.286 66.1924 221.991 78.1505 221.991H373.877C385.835 221.991 396.685 226.289 404.511 233.139L404.512 233.139C412.337 239.986 417.097 249.333 417.097 259.51V434.338C417.097 444.514 412.334 453.863 404.511 460.709C396.681 467.562 385.835 471.858 373.877 471.858H78.1505C66.1925 471.858 55.3426 467.559 47.5161 460.709Z" fill="white" stroke="white" stroke-width="5.17647"/>
</svg>
