<svg width="20" height="20" viewBox="0 0 20 20" fill="none" xmlns="http://www.w3.org/2000/svg">
<path d="M10 12L13 9M13 9L10 6M13 9L2 9M7 14C7 14.9319 7 15.3978 7.15224 15.7654C7.35523 16.2554 7.74432 16.6448 8.23438 16.8478C8.60192 17 9.06812 17 10 17H14.8C15.9201 17 16.48 17 16.9078 16.782C17.2841 16.5902 17.5905 16.2844 17.7822 15.908C18.0002 15.4802 18 14.9201 18 13.8V4.19995C18 3.07985 18.0002 2.51986 17.7822 2.09204C17.5905 1.71572 17.2841 1.40973 16.9078 1.21799C16.48 1 15.9201 1 14.8 1H10C9.06812 1 8.60192 1 8.23438 1.15224C7.74432 1.35523 7.35523 1.74456 7.15224 2.23462C7 2.60216 7 3.0681 7 3.99999" stroke="#E44242" stroke-width="2" stroke-linecap="round" stroke-linejoin="round"/>
</svg>
