<svg width="19" height="21" viewBox="0 0 19 21" fill="none" xmlns="http://www.w3.org/2000/svg">
<path d="M3.78799 10.5781L10.6415 10.5781M16.2382 11.9922L3.94495 18.5003C2.84291 19.0838 2.29198 19.3755 1.92865 19.2916C1.61356 19.2189 1.3533 18.9984 1.22973 18.6996C1.08724 18.355 1.28414 17.7633 1.67846 16.5803L3.51054 11.0841C3.57311 10.8964 3.60437 10.8025 3.61679 10.7064C3.62782 10.6212 3.62803 10.5351 3.617 10.4499C3.60458 10.3539 3.57312 10.2599 3.51055 10.0721L1.67847 4.57588C1.28415 3.39292 1.08687 2.80148 1.22936 2.45689C1.35293 2.15805 1.61354 1.93741 1.92863 1.86465C2.29196 1.78075 2.84297 2.07255 3.94501 2.65599L16.2382 9.16416C17.1046 9.62283 17.5377 9.85205 17.6793 10.158C17.8027 10.4245 17.8029 10.7319 17.6795 10.9984C17.5379 11.3043 17.1045 11.5335 16.2382 11.9922Z" stroke="#1E78FF" stroke-width="2" stroke-linecap="round" stroke-linejoin="round"/>
</svg>
